<svg xmlns="http://www.w3.org/2000/svg" width="41.358" height="41.355" viewBox="0 0 41.358 41.355">
  <g id="Group_3245" data-name="Group 3245" transform="translate(0.5 0.5)">
    <rect id="Rectangle_108" data-name="Rectangle 108" width="40.232" transform="translate(0.062 40.232)" fill="none" stroke="rgba(0,0,0,0)" stroke-miterlimit="10" stroke-width="1"/>
    <path id="Path_7591" data-name="Path 7591" d="M128.105,244.309c-1.514.178-2.922.48-2.922,1.788a1.6,1.6,0,0,0,1.764,1.538,2.983,2.983,0,0,0,2.139-.831,2.46,2.46,0,0,0,.654-1.712v-1.134a1.9,1.9,0,0,1-.832.25Z" transform="translate(-114.08 -210.855)" fill="#ffe129" stroke="rgba(0,0,0,0)" stroke-miterlimit="10" stroke-width="1"/>
    <path id="Path_7592" data-name="Path 7592" d="M145.295,183.6H104.937v40.356h40.358ZM110.821,221.38c-2.066,0-3.467-1.057-3.467-3.018v-.077h1.135v.053c0,1.283.932,2.038,2.341,2.038.755,0,2.191-.327,2.191-1.538,0-2.341-5.388-.678-5.388-4.028,0-1.687,1.57-2.442,3.132-2.442,1.837,0,3.088,1.057,3.088,2.768v.077h-1.134v-.077c0-1.106-.779-1.76-2.038-1.76-.884,0-1.913.376-1.913,1.385,0,2.188,5.384.654,5.384,4.028C114.151,220.577,112.48,221.38,110.821,221.38Zm9.978-.25a6.992,6.992,0,0,1-.126-1.361,3,3,0,0,1-2.946,1.61c-1.764,0-2.817-.956-2.817-2.518,0-2.264,2.038-2.49,4.024-2.716l.432-.053c.8-.1,1.231-.2,1.231-1.081,0-1.13-.654-1.635-2.063-1.635-1.182,0-2.139.5-2.139,1.788v.072h-1.134v-.072c0-1.99,1.586-2.8,3.4-2.8,1.962,0,3.092.783,3.092,2.619v4.633a6.63,6.63,0,0,0,.169,1.51Zm5.513,0h-1.235l-3.019-8.508h1.312l2.337,7.208,2.313-7.208h1.21Zm4.658,0h-1.182v-8.508h1.182Zm.19-10.748s0-.009,0-.014a.792.792,0,0,1-1.584-.014.787.787,0,0,1,.791-.767.8.8,0,0,1,.794.781s0-.009,0-.014Zm2.151,10.748h-1.182V209.4h1.182Zm2.316,0h-1.182V209.4h1.182Zm4.142.25c-2.086,0-3.487-1.057-3.487-3.018v-.077h1.134v.053a2.06,2.06,0,0,0,2.341,2.038c.755,0,2.212-.327,2.212-1.538,0-2.341-5.412-.678-5.412-4.028,0-1.687,1.574-2.442,3.132-2.442,1.865,0,3.112,1.057,3.112,2.768v.077h-1.13v-.077c0-1.106-.783-1.76-2.042-1.76-.9,0-1.937.376-1.937,1.385,0,2.188,5.412.654,5.412,4.028C143.1,220.577,141.432,221.38,139.768,221.38Z" transform="translate(-104.937 -183.596)" fill="#ffe129" stroke="rgba(0,0,0,0)" stroke-miterlimit="10" stroke-width="1"/>
    <path id="Path_7593" data-name="Path 7593" d="M152.752,232.417v-.029s0,.009,0,.014S152.752,232.412,152.752,232.417Z" transform="translate(-126.529 -205.63)" fill="#ba000a" stroke="rgba(0,0,0,0)" stroke-miterlimit="10" stroke-width="1"/>
    <g id="Group_2707" data-name="Group 2707" transform="translate(2.418 25.801)">
      <path id="Path_7594" data-name="Path 7594" d="M110.758,238.454c0-1.009,1.029-1.385,1.913-1.385,1.259,0,2.038.654,2.038,1.76v.077h1.134v-.077c0-1.712-1.251-2.768-3.088-2.768-1.562,0-3.132.755-3.132,2.442,0,3.35,5.388,1.687,5.388,4.028,0,1.211-1.437,1.538-2.191,1.538-1.409,0-2.341-.755-2.341-2.038v-.053h-1.135v.077c0,1.961,1.4,3.018,3.467,3.018,1.659,0,3.33-.8,3.33-2.591C116.142,239.108,110.758,240.642,110.758,238.454Z" transform="translate(-109.345 -233.09)" fill="#ba000a" stroke="rgba(0,0,0,0)" stroke-miterlimit="10" stroke-width="1"/>
      <path id="Path_7595" data-name="Path 7595" d="M129.964,238.68c0-1.837-1.13-2.619-3.092-2.619-1.813,0-3.4.807-3.4,2.8v.072h1.134v-.072c0-1.284.956-1.788,2.139-1.788,1.409,0,2.063.5,2.063,1.635,0,.88-.428.981-1.231,1.081l-.432.053c-1.986.226-4.024.452-4.024,2.716,0,1.562,1.053,2.518,2.817,2.518a3,3,0,0,0,2.946-1.61,6.992,6.992,0,0,0,.126,1.361h1.122a6.631,6.631,0,0,1-.169-1.51Zm-1.154,2.845a2.46,2.46,0,0,1-.654,1.712,2.983,2.983,0,0,1-2.139.831,1.6,1.6,0,0,1-1.764-1.538c0-1.308,1.409-1.61,2.922-1.788l.8-.1a1.906,1.906,0,0,0,.832-.25Z" transform="translate(-115.567 -233.09)" fill="#ba000a" stroke="rgba(0,0,0,0)" stroke-miterlimit="10" stroke-width="1"/>
      <path id="Path_7596" data-name="Path 7596" d="M142.118,236.525l-2.313,7.208-2.337-7.208h-1.312l3.019,8.508h1.235l2.918-8.508h-1.21Z" transform="translate(-121.453 -233.299)" fill="#ba000a" stroke="rgba(0,0,0,0)" stroke-miterlimit="10" stroke-width="1"/>
      <path id="Path_7597" data-name="Path 7597" d="M150.652,230.99a.781.781,0,1,0,0,1.562.781.781,0,1,0,0-1.562Z" transform="translate(-127.642 -230.8)" fill="#ba000a" stroke="rgba(0,0,0,0)" stroke-miterlimit="10" stroke-width="1"/>
      <path id="Path_7598" data-name="Path 7598" d="M150.251,236.525v8.508h1.183v-8.508h-1.183Z" transform="translate(-127.818 -233.299)" fill="#ba000a" stroke="rgba(0,0,0,0)" stroke-miterlimit="10" stroke-width="1"/>
      <path id="Path_7599" data-name="Path 7599" d="M154.519,230.643v11.733H155.7V230.643h-1.183Z" transform="translate(-129.745 -230.643)" fill="#ba000a" stroke="rgba(0,0,0,0)" stroke-miterlimit="10" stroke-width="1"/>
      <path id="Path_7600" data-name="Path 7600" d="M158.744,230.643v11.733h1.182V230.643h-1.182Z" transform="translate(-131.653 -230.643)" fill="#ba000a" stroke="rgba(0,0,0,0)" stroke-miterlimit="10" stroke-width="1"/>
      <path id="Path_7601" data-name="Path 7601" d="M163.5,238.454c0-1.009,1.033-1.385,1.938-1.385,1.259,0,2.042.654,2.042,1.76v.077h1.13v-.077c0-1.712-1.247-2.768-3.112-2.768-1.558,0-3.132.755-3.132,2.442,0,3.35,5.412,1.687,5.412,4.028,0,1.211-1.457,1.538-2.212,1.538a2.06,2.06,0,0,1-2.341-2.038v-.053h-1.134v.077c0,1.961,1.4,3.018,3.487,3.018,1.663,0,3.334-.8,3.334-2.591C168.914,239.108,163.5,240.642,163.5,238.454Z" transform="translate(-133.166 -233.09)" fill="#ba000a" stroke="rgba(0,0,0,0)" stroke-miterlimit="10" stroke-width="1"/>
    </g>
  </g>
</svg>
