<svg xmlns="http://www.w3.org/2000/svg" width="20.444" height="23" viewBox="0 0 20.444 23">
  <path id="Path_7664" data-name="Path 7664" d="M155.6,143.767a3.821,3.821,0,0,0-2.442.878l-6.58-3.948a3.808,3.808,0,0,0,0-1.528l6.58-3.948a3.833,3.833,0,1,0-1.391-2.955,3.892,3.892,0,0,0,.076.764l-6.58,3.948a3.833,3.833,0,1,0,0,5.91l6.58,3.948a3.9,3.9,0,0,0-.076.764,3.833,3.833,0,1,0,3.833-3.834Zm0-13.416a1.916,1.916,0,1,1-1.916,1.916A1.916,1.916,0,0,1,155.6,130.351Zm-12.778,11.5a1.916,1.916,0,1,1,1.917-1.916A1.917,1.917,0,0,1,142.822,141.85Zm12.778,7.668a1.917,1.917,0,1,1,1.917-1.917A1.917,1.917,0,0,1,155.6,149.518Z" transform="translate(-138.989 -128.434)" fill="#fff"/>
</svg>
